# xmcd
#
# Track frame offsets: 
#        150
#        19939
#        36329
#        52481
#        68621
#        84867
#        103057
#        123389
#        143666
#        162531
#        181845
#        193757
#        211351
#        229265
#        245238
#        259985
#        276607
#        294107
#        306971
#
# Disc length: 4294 seconds
#
# Revision: 0
# Processed by: cddbd v1.5.2PL0 Copyright (c) Steve Scherf et al.
# Submitted via: ExactAudioCopy v0.95b4
#
DISCID=2810c413
DTITLE=Various Artist - Siempre Te Amare Vol.9
DYEAR=2000
DGENRE=Ballad
TTITLE0=Sergio Fachelli - Quiereme tal como soy
TTITLE1=Franco Simone - Respiro
TTITLE2=Matia Bazar - Solo tú
TTITLE3=Ricos y Pobres - Será porque te amo
TTITLE4=Paolo Salvatore - No puedo estar sin ti
TTITLE5=Toto Cotugno - Enamorados
TTITLE6=Umberto Tozzi - Tú
TTITLE7=New Trolls - Aquella caricia de otoño
TTITLE8=Anselmo Genovese - Tu sola
TTITLE9=Romulo Cocciari - Bella sin alma
TTITLE10=Albano y Romina Power - Historia de dos enamorados
TTITLE11=Frederic Francois - Te quiero, te amo
TTITLE12=Sandro Giacobbe - Señora mia
TTITLE13=Bachelli - Sed
TTITLE14=Wess y Dori - Tu eres mi vida
TTITLE15=Domenico Modugno - El maestro del violín
TTITLE16=Rafaela Carrá - Hay que venir al sur
TTITLE17=Nicola Di Bari - Vagabundo
TTITLE18=Oscar Athie - Quiero llenarme de ti
EXTD=
EXTT0=
EXTT1=
EXTT2=
EXTT3=
EXTT4=
EXTT5=
EXTT6=
EXTT7=
EXTT8=
EXTT9=
EXTT10=
EXTT11=
EXTT12=
EXTT13=
EXTT14=
EXTT15=
EXTT16=
EXTT17=
EXTT18=
PLAYORDER=
